<svg width="25" height="23" viewBox="0 0 25 23" fill="none" xmlns="http://www.w3.org/2000/svg">
<path d="M23.2641 11.4128C23.4134 11.5306 23.607 11.5905 23.8048 11.5761C24.0049 11.5615 24.1874 11.4726 24.3155 11.3334C24.4431 11.1947 24.5072 11.0171 24.4994 10.8384C24.4916 10.6619 24.4141 10.4914 24.2772 10.3633L13.0065 0.684878C12.8693 0.567182 12.6892 0.5 12.5 0.5C12.3109 0.5 12.1309 0.567122 11.9937 0.68472L23.2641 11.4128ZM23.2641 11.4128L22.8495 11.0588L22.0248 10.3546V11.439V20.5789C22.0248 21.0827 21.8178 21.5695 21.4433 21.9313C21.0683 22.2935 20.5561 22.5 20.0186 22.5H4.98141C4.44387 22.5 3.93167 22.2935 3.55665 21.9313C3.18223 21.5695 2.97521 21.0827 2.97521 20.5789V11.439V10.3546L2.15052 11.0588L1.73594 11.4128C1.58661 11.5306 1.39301 11.5905 1.19517 11.5761C0.995134 11.5615 0.812556 11.4726 0.684467 11.3334C0.5569 11.1947 0.492828 11.0171 0.50064 10.8384C0.508357 10.6619 0.585948 10.4914 0.722845 10.3632L11.9935 0.684878L23.2641 11.4128ZM4.65571 8.90484L4.48141 9.05448V9.28421V20.5789V21.0789H4.98141H8.7407H9.2407V20.5789V14.526C9.2407 14.3432 9.3157 14.1643 9.45513 14.0296C9.59514 13.8943 9.7886 13.8154 9.9938 13.8154H15.0062C15.2114 13.8154 15.4049 13.8943 15.5449 14.0296C15.6843 14.1643 15.7593 14.3432 15.7593 14.526V20.5789V21.0789H16.2593H20.0186H20.5186V20.5789V9.28542V9.05572L20.3443 8.90608L12.8257 2.45009L12.5 2.17042L12.1743 2.45006L4.65571 8.90484ZM13.7531 21.0789H14.2531V20.5789V15.7366V15.2366H13.7531H11.2469H10.7469V15.7366V20.5789V21.0789H11.2469H13.7531Z" fill="#929090" stroke="#929090"/>
</svg>
