<svg width="25" height="25" viewBox="0 0 25 25" fill="none" xmlns="http://www.w3.org/2000/svg">
<path d="M10.7446 6.8645L10.7446 6.86452L10.7487 6.86001C10.8194 6.78044 10.9008 6.7205 10.9864 6.68076C11.0718 6.64111 11.1612 6.62161 11.25 6.62161C11.3388 6.62161 11.4282 6.64111 11.5136 6.68076C11.5992 6.7205 11.6806 6.78044 11.7513 6.86002L11.7529 6.86175L16.2404 11.8617L16.2412 11.8626C16.3134 11.9427 16.3731 12.0405 16.4146 12.1518C16.4562 12.2631 16.4781 12.3839 16.4781 12.5069C16.4781 12.63 16.4562 12.7508 16.4146 12.8621C16.3731 12.9733 16.3134 13.0712 16.2412 13.1512L16.2409 13.1516L11.7534 18.1377C11.4645 18.4587 11.0355 18.4587 10.7467 18.1377L10.7446 18.1355C10.6731 18.057 10.6138 17.9606 10.5725 17.8509C10.5312 17.741 10.5095 17.6217 10.5095 17.5C10.5095 17.3783 10.5312 17.259 10.5725 17.1491C10.6138 17.0394 10.6731 16.943 10.7446 16.8645L10.7466 16.8623L13.1216 14.2234L13.8727 13.3889H12.75H1.25C0.886892 13.3889 0.5 13.0386 0.5 12.5C0.5 11.9614 0.886892 11.6111 1.25 11.6111H12.75H13.8727L13.1216 10.7766L10.7466 8.13774L10.7467 8.13773L10.7446 8.1355C10.6731 8.05698 10.6138 7.96064 10.5725 7.85086C10.5312 7.74105 10.5095 7.62165 10.5095 7.5C10.5095 7.37835 10.5312 7.25895 10.5725 7.14914C10.6138 7.03936 10.6731 6.94302 10.7446 6.8645ZM22.5 22.7222H23V22.2222V2.77778V2.27778H22.5H13.75C13.3869 2.27778 13 1.92749 13 1.38889C13 0.850286 13.3869 0.5 13.75 0.5H22.5C23.5506 0.5 24.5 1.47529 24.5 2.77778V22.2222C24.5 23.5247 23.5506 24.5 22.5 24.5H13.75C13.3869 24.5 13 24.1497 13 23.6111C13 23.0725 13.3869 22.7222 13.75 22.7222H22.5Z" fill="#929090" stroke="#929090"/>
</svg>
