<svg width="44" height="43" viewBox="0 0 44 43" fill="none" xmlns="http://www.w3.org/2000/svg">
<path d="M30.9701 30.1L29.2743 33.2162L37.5771 31.8896C35.9016 31.0683 33.6334 30.4814 30.9701 30.1ZM9.58169 30.7794C5.73609 31.7705 3.2998 33.3946 3.2998 35.8069C3.30139 36.3263 3.41755 36.8392 3.64036 37.3106L16.9658 35.1821L9.58169 30.7794ZM40.3874 34.4L21.8414 37.3541L26.7324 42.7919C34.7642 42.0888 40.6998 39.5815 40.6998 35.8069C40.6998 35.3038 40.5889 34.836 40.3874 34.4ZM18.7077 37.8636L6.17652 39.8653C9.48884 41.8708 15.3351 43 21.9998 43C22.4037 43 22.7984 42.9888 23.1962 42.9806L18.7077 37.8636Z" fill="white"/>
<path d="M22.0009 0C14.8289 0 8.94434 5.73319 8.94434 12.7263C8.94434 15.4146 9.81862 17.919 11.2948 19.9782L19.7578 34.2757L19.7939 34.3217C20.1278 34.7479 20.4539 35.0841 20.8367 35.3314C21.2195 35.5791 21.6947 35.727 22.1611 35.6814C23.093 35.5902 23.6637 34.947 24.2053 34.2297L24.2343 34.1927L33.5773 18.6521L33.5826 18.6422C33.8017 18.2552 33.9636 17.8613 34.1009 17.4778C34.7311 15.9693 35.0554 14.3556 35.0557 12.7263C35.0557 5.73319 29.1729 0 22.0009 0ZM22.0009 7.32935C25.1121 7.32935 27.5405 9.69822 27.5405 12.7259C27.5405 15.7543 25.1121 18.1224 22.0009 18.1224C18.8892 18.1224 16.4595 15.7539 16.4595 12.7259C16.4595 9.69865 18.8897 7.32935 22.0009 7.32935Z" fill="white"/>
</svg>
