<svg width="23" height="24" viewBox="0 0 23 24" fill="none" xmlns="http://www.w3.org/2000/svg">
<path d="M12.3077 1H4.23077C3.80234 1 3.39146 1.1783 3.08852 1.49567C2.78558 1.81303 2.61538 2.24348 2.61538 2.69231V17.9231L1 23L7.46154 21.3077H20.3846C20.813 21.3077 21.2239 21.1294 21.5269 20.812C21.8298 20.4947 22 20.0642 22 19.6154V11.1538" stroke="#929090" stroke-width="2" stroke-linecap="round" stroke-linejoin="round"/>
<path d="M13.7026 13.9242L8.85645 14.838L9.66414 9.6934L17.3049 1.72263C17.4551 1.56401 17.6337 1.43811 17.8306 1.3522C18.0274 1.26628 18.2386 1.22205 18.4518 1.22205C18.6651 1.22205 18.8762 1.26628 19.0731 1.3522C19.2699 1.43811 19.4486 1.56401 19.5988 1.72263L21.3111 3.51647C21.4625 3.6738 21.5826 3.86097 21.6647 4.06719C21.7467 4.27341 21.7889 4.49461 21.7889 4.71801C21.7889 4.94142 21.7467 5.16261 21.6647 5.36883C21.5826 5.57506 21.4625 5.76223 21.3111 5.91955L13.7026 13.9242Z" stroke="#929090" stroke-width="2" stroke-linecap="round" stroke-linejoin="round"/>
</svg>
