<svg width="34" height="34" viewBox="0 0 34 34" fill="none" xmlns="http://www.w3.org/2000/svg">
<g id="Group">
<path id="Vector" d="M18.1466 21.62L11.2266 22.8656L12.3799 15.8534L25.5971 2.68231C25.8115 2.46611 26.0666 2.2945 26.3477 2.1774C26.6288 2.06029 26.9303 2 27.2348 2C27.5393 2 27.8408 2.06029 28.1219 2.1774C28.403 2.2945 28.6581 2.46611 28.8725 2.68231L31.3176 5.12737C31.5338 5.3418 31.7054 5.59692 31.8225 5.87801C31.9396 6.1591 31.9999 6.46059 31.9999 6.7651C31.9999 7.06961 31.9396 7.3711 31.8225 7.65219C31.7054 7.93328 31.5338 8.1884 31.3176 8.40283L18.1466 21.62Z" stroke="#666666" stroke-width="3" stroke-linecap="round" stroke-linejoin="round"/>
<path id="Vector_2" d="M28.5266 22.7733V29.6933C28.5266 30.3051 28.2836 30.8918 27.851 31.3244C27.4184 31.757 26.8317 32 26.22 32H4.30666C3.6949 32 3.10819 31.757 2.67561 31.3244C2.24302 30.8918 2 30.3051 2 29.6933V7.78002C2 7.16826 2.24302 6.58155 2.67561 6.14896C3.10819 5.71638 3.6949 5.47336 4.30666 5.47336H11.2267" stroke="#666666" stroke-width="3" stroke-linecap="round" stroke-linejoin="round"/>
</g>
</svg>
