<svg width="32" height="32" viewBox="0 0 32 32" fill="none" xmlns="http://www.w3.org/2000/svg">
<path id="Vector" d="M30.323 0.790049L31.2006 1.65822C32.4099 2.856 32.227 4.97933 30.7886 6.40078L12.69 24.3042L6.8262 26.4261C6.08988 26.6939 5.3729 26.3466 5.22712 25.6535C5.17786 25.4021 5.20105 25.1421 5.29406 24.9031L7.48071 19.0525L25.5287 1.19765C26.9671 -0.223796 29.1136 -0.407731 30.323 0.790049ZM11.9001 2.57053C12.0955 2.57053 12.2889 2.60859 12.4694 2.68254C12.6498 2.75649 12.8138 2.86488 12.9519 3.00152C13.0901 3.13816 13.1996 3.30037 13.2744 3.4789C13.3491 3.65742 13.3876 3.84877 13.3876 4.04201C13.3876 4.23524 13.3491 4.42659 13.2744 4.60511C13.1996 4.78364 13.0901 4.94586 12.9519 5.08249C12.8138 5.21913 12.6498 5.32752 12.4694 5.40147C12.2889 5.47542 12.0955 5.51348 11.9001 5.51348H5.95005C5.16103 5.51348 4.40432 5.82354 3.84639 6.37545C3.28847 6.92736 2.97503 7.67591 2.97503 8.45643V26.1141C2.97503 26.8946 3.28847 27.6432 3.84639 28.1951C4.40432 28.747 5.16103 29.0571 5.95005 29.0571H23.8002C24.5892 29.0571 25.346 28.747 25.9039 28.1951C26.4618 27.6432 26.7752 26.8946 26.7752 26.1141V20.2282C26.7752 19.838 26.932 19.4637 27.2109 19.1877C27.4899 18.9118 27.8682 18.7567 28.2628 18.7567C28.6573 18.7567 29.0356 18.9118 29.3146 19.1877C29.5935 19.4637 29.7503 19.838 29.7503 20.2282V26.1141C29.7503 27.6751 29.1234 29.1722 28.0075 30.2761C26.8917 31.3799 25.3783 32 23.8002 32H5.95005C4.372 32 2.85858 31.3799 1.74273 30.2761C0.626879 29.1722 0 27.6751 0 26.1141V8.45643C0 6.89539 0.626879 5.39829 1.74273 4.29447C2.85858 3.19065 4.372 2.57053 5.95005 2.57053H11.9001Z" fill="#FF6969"/>
</svg>
